# xmcd CD database file
#
# Track frame offsets:
#	150
#	11143
#	23432
#	35908
#	47278
#	60415
#	74065
#	87904
#	102942
#	114636
#	127380
#	141007
#	154725
#	168611
#	181325
#	195405
#	209753
#	223543
#	236215
#	249552
#	261779
#	275889
#
# Disc length: 3849 seconds
#
# Revision: 4
# Processed by: cddbd v1.5.2PL0 Copyright (c) Steve Scherf et al.
# Submitted via: CDex 1.51
#
DISCID=510f0716
DTITLE=Louis Armstrong - Hot Five - Vol.1 {1925-1926}
DYEAR=2003
DGENRE=Jazz
TTITLE0=My Heart
TTITLE1=Yes ! I'm in the Barrel
TTITLE2=Gut Bucket Blues
TTITLE3=Come Back Sweet Papa
TTITLE4=Heebie Jeebies
TTITLE5=Cornet Shop Suey
TTITLE6=Oriental Strut
TTITLE7=You're Next
TTITLE8=Muskrat Ramble
TTITLE9=I'm Gonna Gitcha
TTITLE10=King of the Zulus
TTITLE11=Big Fat Ma And Skinny Pa
TTITLE12=Lonesome Blues
TTITLE13=Sweet Little Papa
TTITLE14=Jazz Lips
TTITLE15=Skid-Dat-De-Dat
TTITLE16=Big Butter and Egg Man
TTITLE17=Sunset Cafe Stomp
TTITLE18=You Made Me Love You
TTITLE19=Irish Black Bottom
TTITLE20=Georgia Bo Bo
TTITLE21=Drop That Sack
EXTD=YEAR: 2003
EXTT0=
EXTT1=
EXTT2=
EXTT3=
EXTT4=
EXTT5=
EXTT6=
EXTT7=
EXTT8=
EXTT9=
EXTT10=
EXTT11=
EXTT12=
EXTT13=
EXTT14=
EXTT15=
EXTT16=
EXTT17=
EXTT18=
EXTT19=
EXTT20=
EXTT21=
PLAYORDER=
